<svg width="800" height="1000" viewBox="0 0 800 1000" xmlns="http://www.w3.org/2000/svg">
  <defs>
    <linearGradient id="headerGradient" x1="0%" y1="0%" x2="100%" y2="0%">
      <stop offset="0%" style="stop-color:#667eea;stop-opacity:1" />
      <stop offset="100%" style="stop-color:#764ba2;stop-opacity:1" />
    </linearGradient>
    <linearGradient id="cardGradient" x1="0%" y1="0%" x2="100%" y2="100%">
      <stop offset="0%" style="stop-color:#f8fafc;stop-opacity:1" />
      <stop offset="100%" style="stop-color:#e2e8f0;stop-opacity:1" />
    </linearGradient>
    <filter id="shadow" x="-20%" y="-20%" width="140%" height="140%">
      <feDropShadow dx="0" dy="8" stdDeviation="12" flood-color="#000000" flood-opacity="0.1"/>
    </filter>
  </defs>
  
  <!-- Background -->
  <rect width="800" height="1000" fill="#ffffff"/>
  
  <!-- Main Card -->
  <rect x="40" y="40" width="720" height="920" rx="16" fill="url(#cardGradient)" filter="url(#shadow)"/>
  
  <!-- Header Section -->
  <rect x="60" y="60" width="680" height="120" rx="12" fill="url(#headerGradient)"/>
  
  <!-- Profile Picture Placeholder -->
  <circle cx="140" cy="120" r="35" fill="#ffffff" opacity="0.9"/>
  <circle cx="140" cy="115" r="15" fill="#667eea" opacity="0.7"/>
  <path d="M 125 135 Q 140 125 155 135" stroke="#667eea" stroke-width="2" fill="none" opacity="0.7"/>
  
  <!-- Name and Title -->
  <rect x="200" y="85" width="200" height="20" rx="4" fill="#ffffff" opacity="0.9"/>
  <rect x="200" y="115" width="150" height="15" rx="3" fill="#ffffff" opacity="0.7"/>
  <rect x="200" y="140" width="180" height="12" rx="3" fill="#ffffff" opacity="0.6"/>
  
  <!-- Contact Info -->
  <rect x="450" y="85" width="120" height="12" rx="3" fill="#ffffff" opacity="0.8"/>
  <rect x="450" y="105" width="140" height="12" rx="3" fill="#ffffff" opacity="0.8"/>
  <rect x="450" y="125" width="100" height="12" rx="3" fill="#ffffff" opacity="0.8"/>
  <rect x="450" y="145" width="130" height="12" rx="3" fill="#ffffff" opacity="0.8"/>
  
  <!-- Section: Professional Summary -->
  <rect x="80" y="220" width="180" height="18" rx="4" fill="#667eea" opacity="0.8"/>
  <rect x="80" y="255" width="640" height="8" rx="2" fill="#e2e8f0"/>
  <rect x="80" y="270" width="600" height="8" rx="2" fill="#e2e8f0"/>
  <rect x="80" y="285" width="580" height="8" rx="2" fill="#e2e8f0"/>
  <rect x="80" y="300" width="520" height="8" rx="2" fill="#e2e8f0"/>
  
  <!-- Section: Experience -->
  <rect x="80" y="340" width="120" height="18" rx="4" fill="#667eea" opacity="0.8"/>
  
  <!-- Experience Item 1 -->
  <rect x="100" y="375" width="160" height="14" rx="3" fill="#1e293b"/>
  <rect x="100" y="395" width="120" height="10" rx="2" fill="#64748b"/>
  <rect x="500" y="395" width="80" height="10" rx="2" fill="#64748b"/>
  <rect x="100" y="415" width="580" height="6" rx="1" fill="#cbd5e1"/>
  <rect x="100" y="425" width="540" height="6" rx="1" fill="#cbd5e1"/>
  <rect x="100" y="435" width="480" height="6" rx="1" fill="#cbd5e1"/>
  
  <!-- Experience Item 2 -->
  <rect x="100" y="465" width="180" height="14" rx="3" fill="#1e293b"/>
  <rect x="100" y="485" width="140" height="10" rx="2" fill="#64748b"/>
  <rect x="500" y="485" width="90" height="10" rx="2" fill="#64748b"/>
  <rect x="100" y="505" width="560" height="6" rx="1" fill="#cbd5e1"/>
  <rect x="100" y="515" width="520" height="6" rx="1" fill="#cbd5e1"/>
  
  <!-- Section: Education -->
  <rect x="80" y="555" width="100" height="18" rx="4" fill="#667eea" opacity="0.8"/>
  <rect x="100" y="590" width="200" height="14" rx="3" fill="#1e293b"/>
  <rect x="100" y="610" width="160" height="10" rx="2" fill="#64748b"/>
  <rect x="500" y="610" width="70" height="10" rx="2" fill="#64748b"/>
  
  <!-- Section: Skills -->
  <rect x="80" y="650" width="80" height="18" rx="4" fill="#667eea" opacity="0.8"/>
  
  <!-- Skill Items -->
  <rect x="100" y="685" width="80" height="25" rx="12" fill="#667eea" opacity="0.2"/>
  <rect x="190" y="685" width="90" height="25" rx="12" fill="#667eea" opacity="0.2"/>
  <rect x="290" y="685" width="70" height="25" rx="12" fill="#667eea" opacity="0.2"/>
  <rect x="370" y="685" width="100" height="25" rx="12" fill="#667eea" opacity="0.2"/>
  <rect x="480" y="685" width="85" height="25" rx="12" fill="#667eea" opacity="0.2"/>
  
  <rect x="100" y="720" width="95" height="25" rx="12" fill="#667eea" opacity="0.2"/>
  <rect x="205" y="720" width="75" height="25" rx="12" fill="#667eea" opacity="0.2"/>
  <rect x="290" y="720" width="110" height="25" rx="12" fill="#667eea" opacity="0.2"/>
  <rect x="410" y="720" width="80" height="25" rx="12" fill="#667eea" opacity="0.2"/>
  
  <!-- Section: Projects -->
  <rect x="80" y="770" width="90" height="18" rx="4" fill="#667eea" opacity="0.8"/>
  <rect x="100" y="805" width="170" height="14" rx="3" fill="#1e293b"/>
  <rect x="100" y="825" width="500" height="6" rx="1" fill="#cbd5e1"/>
  <rect x="100" y="835" width="460" height="6" rx="1" fill="#cbd5e1"/>
  
  <rect x="100" y="860" width="190" height="14" rx="3" fill="#1e293b"/>
  <rect x="100" y="880" width="480" height="6" rx="1" fill="#cbd5e1"/>
  <rect x="100" y="890" width="420" height="6" rx="1" fill="#cbd5e1"/>
  
  <!-- Decorative Elements -->
  <circle cx="700" cy="200" r="3" fill="#667eea" opacity="0.3"/>
  <circle cx="720" cy="220" r="2" fill="#764ba2" opacity="0.3"/>
  <circle cx="680" cy="240" r="2.5" fill="#667eea" opacity="0.3"/>
  
  <circle cx="90" cy="750" r="2" fill="#667eea" opacity="0.3"/>
  <circle cx="110" cy="770" r="1.5" fill="#764ba2" opacity="0.3"/>
  
</svg>